<svg width="1024" height="1024" xmlns="http://www.w3.org/2000/svg" xmlns:xlink="http://www.w3.org/1999/xlink"><defs><linearGradient x1="50%" y1="0%" x2="50%" y2="100%" id="c"><stop stop-color="#D2E8EF" offset="0%"/><stop stop-color="#757473" offset="99.978%"/></linearGradient><linearGradient x1="50%" y1="0%" x2="50%" y2="100%" id="d"><stop stop-color="#191919" offset="0%"/><stop offset="100%"/></linearGradient><linearGradient x1="50%" y1="0%" x2="50%" y2="100%" id="e"><stop stop-color="#D2E8EF" offset="0%"/><stop stop-color="#757473" offset="100%"/></linearGradient><filter x="-5.8%" y="-3.6%" width="111.7%" height="108.9%" filterUnits="objectBoundingBox" id="a"><feOffset dy="8" in="SourceAlpha" result="shadowOffsetOuter1"/><feGaussianBlur stdDeviation="12" in="shadowOffsetOuter1" result="shadowBlurOuter1"/><feColorMatrix values="0 0 0 0 0 0 0 0 0 0 0 0 0 0 0 0 0 0 0.6 0" in="shadowBlurOuter1" result="shadowMatrixOuter1"/><feMorphology radius="1" operator="dilate" in="SourceAlpha" result="shadowSpreadOuter2"/><feOffset dy="4" in="shadowSpreadOuter2" result="shadowOffsetOuter2"/><feGaussianBlur stdDeviation="4" in="shadowOffsetOuter2" result="shadowBlurOuter2"/><feColorMatrix values="0 0 0 0 0 0 0 0 0 0 0 0 0 0 0 0 0 0 0.3 0" in="shadowBlurOuter2" result="shadowMatrixOuter2"/><feMerge><feMergeNode in="shadowMatrixOuter1"/><feMergeNode in="shadowMatrixOuter2"/></feMerge></filter><path d="M194 25h283.894a160 160 0 01110.477 44.264l221.725 211.65A200 200 0 01872 425.583V927c0 23.196-18.804 42-42 42H194c-23.196 0-42-18.804-42-42V67c0-23.196 18.804-42 42-42z" id="b"/></defs><g fill="none" fill-rule="evenodd"><use filter="url(#a)" xlink:href="#b" fill="#000"/><path fill="#262626" d="M205 78h337l277 262.004V916H205z"/><path d="M337.625 871v-32.375h18.688c17.625 0 29.187-11.438 29.187-28.875 0-17.5-11.438-28.938-28.938-28.938h-30V871h11.063zm16.188-42.188h-16.188v-38.187h16.188c13.125 0 20.5 6.813 20.5 19.125 0 12.25-7.375 19.063-20.5 19.063zM463.438 871v-10.25h-42.75v-79.938H409.75V871h53.688zm72.312 0v-9.813H517.5v-70.562h18.25v-9.813h-47.5v9.813h18.25v70.563h-18.25V871h47.5zm56.25 1.875c18.875 0 31.063-10.313 31.063-26.5 0-13.563-7.375-21.188-24.875-25.5l-7.875-2c-11.75-2.938-16.75-7.438-16.75-15.25 0-9.188 6.937-14.688 18.5-14.688 10.625 0 17.5 5.5 18.625 14.813h10.75c-.75-15-12.438-24.813-29.438-24.813-18 0-29.563 9.938-29.563 25.313 0 13.063 7.563 21 24.313 25.25l7.75 1.938c12.188 3 17.438 7.687 17.438 15.5 0 9.687-7.875 15.937-19.875 15.937s-19.938-6-21.063-15.875h-10.75c.938 16 13.125 25.875 31.75 25.875zM675.75 871v-80.063H703v-10.125h-65.5v10.125h27.25V871h11z" fill="#4CF569" fill-rule="nonzero"/><path d="M506.182 240.995c2.468-3.993 9.048-3.993 11.515 0l11.868 19.378 5.757.587 15.863-17.03c3.172-3.405 9.635-2.23 11.28 2.232l8.107 21.727 5.64 1.644 18.8-13.506c3.877-2.7 9.987-.117 10.692 4.463l3.76 22.901 5.17 2.701 21.15-9.63c4.348-1.879 9.87 1.762 9.635 6.46l-.822 23.253 4.465 3.64 22.56-5.285c4.7-1.056 9.282 3.641 8.224 8.221l-5.287 22.55 3.642 4.462 23.265-.822c4.818-.118 8.46 5.285 6.463 9.63l-9.635 21.14 2.702 5.167 22.913 3.758c4.7.822 7.167 6.812 4.465 10.687l-13.513 18.79 1.645 5.638 21.738 8.103c4.347 1.645 5.64 8.221 2.232 11.392l-16.92 15.855.588 5.754 19.74 12.214c4.112 2.466 3.994 9.043.587 11.51l-19.74 12.213-.587 5.755 16.92 15.855c3.525 3.17 2.232 9.63-2.233 11.274l-21.737 8.103-1.645 5.638 13.512 18.79c2.703 3.876.235 9.983-4.465 10.687l-22.912 3.758-2.703 5.168 9.635 21.14c1.88 4.345-1.762 9.864-6.462 9.63l-23.265-.823-3.643 4.463 5.288 22.666c1.057 4.58-3.643 9.16-8.225 8.104l-22.56-5.285-4.465 3.64.823 23.254c.117 4.698-5.405 8.456-9.635 6.46l-21.15-9.631-5.17 2.701-3.76 22.901c-.823 4.698-6.815 7.164-10.693 4.463l-18.8-13.506-5.64 1.644-8.107 21.727c-1.645 4.345-8.107 5.637-11.28 2.231l-15.862-16.911-5.758.587-12.22 19.73c-2.467 3.993-9.047 3.993-11.515 0l-12.22-19.73-5.757-.587-15.862 16.911c-3.173 3.524-9.635 2.114-11.28-2.23l-8.108-21.728-5.64-1.644-18.8 13.506c-3.877 2.701-9.987.235-10.692-4.463l-3.76-22.9-5.17-2.702-21.15 9.63c-4.347 1.88-9.87-1.761-9.635-6.46l.823-23.252-4.465-3.641L352.14 641c-4.583 1.174-9.283-3.523-8.225-8.104l5.287-22.666-3.642-4.463-23.265.822c-4.7.118-8.46-5.402-6.462-9.63l9.634-21.14-2.702-5.167-22.912-3.758c-4.7-.704-7.168-6.811-4.465-10.687l13.512-18.79-1.645-5.638-21.737-8.103c-4.348-1.644-5.64-8.104-2.233-11.274l17.038-15.855-.588-5.755-19.74-12.214c-3.995-2.466-3.995-9.043 0-11.509l19.388-11.861.587-5.755-16.92-15.855c-3.407-3.288-2.115-9.747 2.233-11.391l21.737-8.104 1.645-5.637-13.512-18.79c-2.703-3.876-.235-9.983 4.465-10.688l22.912-3.758 2.702-5.167-9.634-21.14c-1.88-4.345 1.762-9.747 6.462-9.63l23.265.822 3.642-4.463-5.287-22.548c-1.058-4.58 3.642-9.278 8.225-8.221l22.56 5.285 4.465-3.641-.823-23.253c-.117-4.698 5.405-8.456 9.635-6.46l21.15 9.63 5.17-2.7 3.76-22.902c.705-4.697 6.815-7.164 10.692-4.462l18.8 13.505 5.64-1.644 8.108-21.727c1.645-4.345 8.107-5.637 11.28-2.23l15.862 17.028 5.757-.587zm35.015 63.066l-20.915 20.904a11.705 11.705 0 01-16.567 0L482.8 304.061c-53.227 9.043-98.112 42.748-122.552 88.903l13.395 26.307c2.938 5.754.588 12.8-5.17 15.737l-26.32 13.388c-1.175 7.986-1.762 16.09-1.762 24.428 0 46.507 18.565 88.668 48.997 119.555l29.14-4.58c6.345-1.057 12.337 3.288 13.395 9.747l4.582 29.243c22.795 11.275 48.528 17.617 75.67 17.617 27.142 0 52.875-6.342 75.67-17.617l4.582-29.243c.94-6.341 6.932-10.804 13.395-9.747l29.14 4.58c29.962-30.887 48.527-73.048 48.644-119.555 0-8.338-.587-16.442-1.762-24.428l-26.32-13.388c-5.875-2.936-8.107-9.983-5.17-15.737l13.395-26.307c-24.44-46.155-69.325-79.743-122.552-88.903zM414.533 606.707c-6.345-4.58-15.157-3.171-19.74 3.17-4.582 6.343-3.172 15.15 3.173 19.73 6.345 4.581 15.157 3.172 19.74-3.17 4.582-6.224 3.172-15.15-3.173-19.73zm214.436 3.17c-4.582-6.224-13.395-7.633-19.74-3.17-6.345 4.58-7.755 13.388-3.172 19.73 4.582 6.342 13.395 7.751 19.74 3.17 6.345-4.58 7.755-13.387 3.172-19.73zM345.326 403.887c-7.403-2.466-15.275 1.644-17.743 9.043-2.467 7.399 1.645 15.385 9.048 17.733 7.402 2.467 15.275-1.644 17.742-9.043 2.468-7.398-1.645-15.267-9.047-17.733zm350.97 9.043c-2.35-7.399-10.34-11.392-17.742-9.043a14.138 14.138 0 00-9.048 17.733c2.35 7.4 10.34 11.392 17.743 9.043 7.402-2.348 11.397-10.334 9.047-17.733zM511.94 279.046c-7.755 0-14.1 6.342-14.1 14.093 0 7.75 6.345 14.093 14.1 14.093s14.1-6.342 14.1-14.093-6.345-14.093-14.1-14.093z" fill="url(#c)" fill-rule="nonzero"/><path d="M476.921 30a160 160 0 01110.444 44.232l217.689 207.676A200 200 0 01867 426.618V922c0 23.196-18.804 42-42 42H199c-23.196 0-42-18.804-42-42V72c0-23.196 18.804-42 42-42h277.921zM438 88H215v818h594V456c0-125.333-79-180-237-164 22.667-136-22-204-134-204z" fill="url(#d)"/><path d="M477.894 25a160 160 0 01110.477 44.264l221.725 211.65A200 200 0 01872 425.583V927c0 23.196-18.804 42-42 42H194c-23.196 0-42-18.804-42-42V67c0-23.196 18.804-42 42-42h283.894zm.144 10H194c-17.673 0-32 14.327-32 32v860c0 17.673 14.327 32 32 32h636c17.673 0 32-14.327 32-32V425.592a190 190 0 00-58.761-137.391L581.647 76.533A150 150 0 00478.037 35z" fill="url(#e)"/></g></svg>